<svg width="16" height="16" viewBox="0 0 16 16" fill="none" xmlns="http://www.w3.org/2000/svg">
<path d="M4.98828 10.1201C5.18431 10.054 5.51345 10.0188 5.7666 10.2842C5.96827 10.4956 6 10.7873 6 11C6 12.0366 5.40717 12.7576 4.71387 13.2168C4.02974 13.6699 3.20194 13.9049 2.57031 13.9951L1.41406 14.1602L2.09277 13.209C2.51137 12.623 3.27971 11.5975 3.95312 10.9023C4.12287 10.7271 4.29405 10.5648 4.45801 10.4336C4.61414 10.3087 4.79696 10.1847 4.98828 10.1201ZM14.3535 2.35352L6.35352 10.3535L5.64648 9.64648L13.6465 1.64648L14.3535 2.35352Z" fill="white"/>
</svg>
