<svg width="16" height="16" viewBox="0 0 16 16" fill="none" xmlns="http://www.w3.org/2000/svg">
<path d="M9.26758 14.376C8.85718 14.4571 8.43334 14.5 8 14.5C7.56666 14.5 7.14282 14.4571 6.73242 14.376L6.92578 13.3955C7.27272 13.4641 7.63204 13.5 8 13.5C8.36796 13.5 8.72728 13.4641 9.07422 13.3955L9.26758 14.376ZM3.42578 11.0557C3.82747 11.6557 4.34434 12.1725 4.94434 12.5742L4.66602 12.9893L4.3877 13.4053C3.67917 12.9309 3.06909 12.3208 2.59473 11.6123L3.01074 11.334L3.42578 11.0557ZM12.9893 11.334L13.4053 11.6123C12.9309 12.3208 12.3208 12.9309 11.6123 13.4053L11.334 12.9893L11.0557 12.5742C11.6557 12.1725 12.1725 11.6557 12.5742 11.0557L12.9893 11.334ZM1.5 8C1.5 7.56666 1.54286 7.14282 1.62402 6.73242L2.60449 6.92578C2.53586 7.27272 2.5 7.63204 2.5 8C2.5 8.36796 2.53586 8.72728 2.60449 9.07422L1.62402 9.26758C1.54286 8.85718 1.5 8.43334 1.5 8ZM13.5 8C13.5 7.63204 13.4641 7.27272 13.3955 6.92578L14.376 6.73242C14.4571 7.14282 14.5 7.56666 14.5 8C14.5 8.43334 14.4571 8.85718 14.376 9.26758L13.3955 9.07422C13.4641 8.72728 13.5 8.36796 13.5 8ZM4.66602 3.01074L4.94434 3.42578C4.34434 3.82747 3.82747 4.34434 3.42578 4.94434L3.01074 4.66602L2.59473 4.3877C3.06909 3.67917 3.67917 3.06909 4.3877 2.59473L4.66602 3.01074ZM11.6123 2.59473C12.3208 3.06909 12.9309 3.67917 13.4053 4.3877L12.9893 4.66602L12.5742 4.94434C12.1725 4.34434 11.6557 3.82747 11.0557 3.42578L11.334 3.01074L11.6123 2.59473ZM8 1.5C8.43334 1.5 8.85718 1.54286 9.26758 1.62402L9.07422 2.60449C8.72728 2.53586 8.36796 2.5 8 2.5C7.63204 2.5 7.27272 2.53586 6.92578 2.60449L6.73242 1.62402C7.14282 1.54286 7.56666 1.5 8 1.5Z" fill="white"/>
</svg>
