<svg width="16" height="16" viewBox="0 0 16 16" fill="none" xmlns="http://www.w3.org/2000/svg">
<path d="M7.70508 6.00098C8.95123 6.00152 10.0189 6.27486 10.9043 6.66406C11.9707 7.13289 12.7686 7.76611 13.2998 8.28125C13.5659 8.53928 13.7665 8.76978 13.9023 8.9375C13.9703 9.02143 14.0228 9.08976 14.0586 9.13867C14.0764 9.16305 14.0898 9.18314 14.0996 9.19727C14.1044 9.20414 14.1084 9.20962 14.1113 9.21387C14.1128 9.21602 14.1152 9.21973 14.1152 9.21973L14.1162 9.22168L14.1172 9.22266L13.2852 9.77734C13.2852 9.77734 13.2821 9.7726 13.2793 9.76855C13.2736 9.76033 13.264 9.74726 13.251 9.72949C13.2243 9.69298 13.182 9.63677 13.125 9.56641C13.0109 9.42558 12.837 9.22544 12.6035 8.99902C12.2447 8.65111 11.7486 8.24453 11.1172 7.88867C10.7673 9.45322 9.37117 10.6229 7.70117 10.6221C6.56766 10.6215 5.56029 10.0814 4.92188 9.24707C4.62017 8.85275 4.40245 8.39165 4.29004 7.89062C3.94539 8.09364 3.56749 8.35515 3.31836 8.54199C2.85028 8.89305 2.54904 9.20554 2.36914 9.42188C2.2791 9.53016 2.21913 9.61512 2.18359 9.66895C2.16603 9.69556 2.15475 9.71486 2.14844 9.72559C2.14529 9.73094 2.14258 9.73535 2.14258 9.73535L2.14355 9.7334L2.14453 9.73242C2.14453 9.73242 2.14446 9.7313 1.70117 9.5C1.30279 9.29213 1.26277 9.27083 1.25879 9.26855L1.26172 9.26172C1.2633 9.25879 1.26534 9.25501 1.26758 9.25098C1.27217 9.24268 1.27865 9.23148 1.28613 9.21875C1.30107 9.19335 1.32221 9.15967 1.34961 9.11816C1.40474 9.03467 1.48645 8.92048 1.60059 8.7832C1.70914 8.65265 1.84702 8.50145 2.01855 8.33594C1.68259 8.19799 1.27922 7.99692 1 7.71777L1.70703 7.01074C1.87544 7.17905 2.20306 7.3435 2.54883 7.47266C2.68764 7.52449 2.81687 7.56515 2.91895 7.5957C3.00549 7.53372 3.10054 7.46798 3.2002 7.40039C2.90485 7.26673 2.58369 7.08756 2.34961 6.85352L3.05664 6.14648C3.22511 6.31488 3.55201 6.47926 3.89746 6.6084C4.05958 6.669 4.20832 6.71571 4.31641 6.74707L4.31934 6.74805C5.23897 6.31594 6.36695 6.00004 7.70117 6L7.70215 6.00098L7.70312 6L7.70508 6.00098ZM5.78906 7.28906C5.5802 7.2892 5.41138 7.45815 5.41113 7.66699C5.41113 7.87604 5.58004 8.04576 5.78906 8.0459C5.9982 8.0459 6.16797 7.87613 6.16797 7.66699C6.16772 7.45806 5.99805 7.28906 5.78906 7.28906ZM9.20312 7.5C9.20312 8.32835 8.53144 8.99987 7.70312 9C7.34022 9 7.00748 8.87074 6.74805 8.65625C6.56461 8.83414 6.33281 8.96225 6.07324 9.0166C6.51082 9.39341 7.07898 9.62165 7.70117 9.62207C8.9718 9.6227 10.019 8.6744 10.1787 7.44727C9.86352 7.3275 9.52386 7.22673 9.16016 7.15039C9.187 7.26268 9.20312 7.37948 9.20312 7.5Z" fill="white"/>
</svg>
