<svg width="16" height="16" viewBox="0 0 16 16" fill="none" xmlns="http://www.w3.org/2000/svg">
<path d="M13.7617 6.72363L14.5938 7.27734L14.5928 7.2793C14.5923 7.28007 14.5915 7.28116 14.5908 7.28223C14.5892 7.28468 14.5866 7.28814 14.584 7.29199C14.5787 7.29974 14.5709 7.31012 14.5615 7.32324C14.5429 7.34948 14.5161 7.38611 14.4814 7.43164C14.4121 7.52272 14.3108 7.64998 14.1768 7.80078C13.9089 8.10216 13.5091 8.50173 12.9775 8.90039C11.913 9.69872 10.3102 10.5 8.17773 10.5C6.60618 10.5 5.32277 10.0641 4.33008 9.51562C4.27388 9.56159 4.2047 9.61846 4.13086 9.68457C3.93085 9.86367 3.72055 10.0789 3.59473 10.2725L3.1748 10L2.75586 9.72754C2.95082 9.42756 3.23227 9.14752 3.44922 8.95215C3.43127 8.93899 3.41316 8.92625 3.39551 8.91309C3.34515 8.93209 3.28672 8.95694 3.22266 8.98828C2.98775 9.10323 2.67667 9.30913 2.39355 9.6709L2 9.3623L1.60645 9.05469C1.92106 8.65268 2.26631 8.38416 2.56934 8.20605C2.41832 8.05902 2.28784 7.92244 2.17969 7.80078C2.04557 7.6499 1.94344 7.52275 1.87402 7.43164C1.83936 7.38614 1.81258 7.34945 1.79395 7.32324C1.78466 7.31018 1.7768 7.29971 1.77148 7.29199C1.7689 7.28823 1.76725 7.28463 1.76562 7.28223C1.76486 7.2811 1.76422 7.28011 1.76367 7.2793L1.7627 7.27832C1.76255 7.27811 1.76187 7.27724 2.17773 7C2.56223 6.74367 2.59164 6.72428 2.59375 6.72266C2.59407 6.72313 2.59453 6.72388 2.5957 6.72559C2.59821 6.72923 2.6023 6.73557 2.6084 6.74414C2.62098 6.76183 2.64119 6.78974 2.66895 6.82617C2.72453 6.89913 2.81088 7.00635 2.92676 7.13672C3.15879 7.39774 3.50939 7.74844 3.97754 8.09961C4.91292 8.80114 6.3106 9.49994 8.17773 9.5C10.045 9.5 11.4425 8.80117 12.3779 8.09961C12.8463 7.74831 13.1976 7.39781 13.4297 7.13672C13.5454 7.00651 13.631 6.8991 13.6865 6.82617C13.7142 6.7898 13.7345 6.76185 13.7471 6.74414C13.7531 6.73569 13.7572 6.72926 13.7598 6.72559L13.7617 6.72363Z" fill="white"/>
</svg>
