<svg width="16" height="16" viewBox="0 0 16 16" fill="none" xmlns="http://www.w3.org/2000/svg">
<path d="M4.5 12C4.5 12.8284 3.82843 13.5 3 13.5C2.17157 13.5 1.5 12.8284 1.5 12C1.5 11.7484 1.60295 11.4698 1.69824 11.2529C1.80253 11.0156 1.93794 10.7651 2.06738 10.542C2.19781 10.3172 2.32808 10.1118 2.4248 9.96289C2.47331 9.8882 2.51336 9.82676 2.54199 9.78418C2.55631 9.76289 2.56827 9.74597 2.57617 9.73438C2.57999 9.72877 2.58284 9.72379 2.58496 9.7207L2.58789 9.71777L3 9.12012L3.41113 9.71582L3.41211 9.7168L3.41504 9.7207C3.41716 9.72379 3.42001 9.72877 3.42383 9.73438C3.43173 9.74597 3.44369 9.76289 3.45801 9.78418C3.48664 9.82676 3.52669 9.8882 3.5752 9.96289C3.67192 10.1118 3.80219 10.3172 3.93262 10.542C4.06206 10.7651 4.19747 11.0156 4.30176 11.2529C4.39705 11.4698 4.5 11.7484 4.5 12Z" fill="white"/>
<path d="M10.3535 2.35352L9.70703 3L14.707 8L9 13.707L3.29297 8L9.64648 1.64648L10.3535 2.35352ZM5.20703 7.5H12.793L9 3.70703L5.20703 7.5Z" fill="white"/>
</svg>
