<svg width="16" height="16" viewBox="0 0 16 16" fill="none" xmlns="http://www.w3.org/2000/svg">
<path d="M14.1856 14.4647C13.9018 14.5782 13.6204 14.6578 13.3467 14.7068L13.1709 13.7225C13.3754 13.6858 13.5913 13.6252 13.8145 13.536L14.1856 14.4647ZM11.3526 12.8904C11.369 13.1817 11.5538 13.4552 11.9405 13.6229L11.7422 14.0809L11.543 14.5399C10.8848 14.2545 10.3952 13.691 10.3536 12.9461L10.8536 12.9178L11.3526 12.8904ZM13.084 10.6922C12.8672 10.9191 12.6105 11.1521 12.3125 11.3904C12.1108 11.5518 11.9466 11.7095 11.8145 11.8602L11.4385 11.5301L11.0625 11.201C11.2379 11.001 11.4457 10.8027 11.6875 10.6092C11.9571 10.3935 12.1803 10.1903 12.3614 10.0008L13.084 10.6922ZM4.31742 7.79865C4.84423 7.89857 5.45614 7.94029 6.12699 7.91486L6.14652 8.41486L6.16508 8.91486C5.43244 8.94264 4.74375 8.89732 4.1309 8.78107L4.22465 8.28986L4.31742 7.79865ZM13.376 6.28302C13.026 6.61711 12.6049 6.93185 12.1231 7.2215C12.9559 7.3608 13.7335 7.7355 13.9473 8.50275L13.4659 8.63654L12.9844 8.7713C12.9298 8.57529 12.6405 8.28895 11.8252 8.18439L11.8897 7.68927L11.9346 7.33087C11.8852 7.35898 11.8358 7.38826 11.7852 7.41583L11.3067 6.5379C11.8686 6.23173 12.3302 5.89866 12.6856 5.55939L13.376 6.28302ZM9.73343 7.29376C9.77869 7.28555 9.82339 7.27587 9.8682 7.26837L9.95121 7.76154L10.0049 8.08576L10.0362 8.17658C10.0311 8.1783 10.0256 8.17876 10.0205 8.18048L10.0332 8.2547C9.74418 8.30306 9.44204 8.36835 9.12992 8.45197C8.80253 8.53969 8.47699 8.61478 8.15629 8.67755L8.06058 8.18634L7.9639 7.69611C8.26207 7.63775 8.56568 7.56799 8.87113 7.48615C9.16328 7.40786 9.44373 7.32217 9.71195 7.23029L9.73343 7.29376ZM2.00785 5.82794L2.47465 6.00861C2.38885 6.23034 2.37649 6.43222 2.42777 6.62384C2.47891 6.8147 2.59509 6.99743 2.793 7.16779L2.14164 7.92658C1.81731 7.6476 1.57345 7.29876 1.46195 6.88263C1.34945 6.46251 1.38916 6.04349 1.54203 5.64826L2.00785 5.82794ZM5.05277 3.90704C4.45027 4.1904 3.93211 4.49505 3.51664 4.80841L2.91508 4.00958C3.39732 3.64593 3.97737 3.30729 4.62699 3.00177L5.05277 3.90704ZM13.7666 2.4129C14.104 2.65657 14.3777 2.97626 14.4834 3.37091C14.5853 3.75141 14.5808 4.14134 14.4864 4.52326L13.5157 4.28302C13.5729 4.0514 13.5713 3.83395 13.5166 3.6297C13.489 3.52672 13.4006 3.38157 13.1817 3.22345L13.4746 2.81818L13.7666 2.4129ZM8.45121 2.79279C8.18345 2.84514 7.90938 2.90834 7.62992 2.98322C7.32835 3.06402 7.03373 3.15071 6.74906 3.24298L6.59574 2.7674L6.44144 2.29181C6.74283 2.19412 7.05346 2.10252 7.37113 2.0174C7.67268 1.9366 7.96934 1.86813 8.2598 1.81134L8.45121 2.79279ZM10.0782 1.5965C10.7554 1.57181 11.3801 1.61504 11.9327 1.71368L11.7569 2.69806C11.2818 2.61325 10.7292 2.57316 10.1153 2.59552L10.0782 1.5965Z" fill="white"/>
</svg>
