<svg width="16" height="16" viewBox="0 0 16 16" fill="none" xmlns="http://www.w3.org/2000/svg">
<path d="M7.37121 2.0174C9.16635 1.53644 10.7918 1.49169 12.0304 1.73126C12.6485 1.85084 13.1888 2.04537 13.6075 2.30646C14.0209 2.56425 14.3621 2.91794 14.4835 3.37091C14.767 4.42985 14.2336 5.49476 13.2999 6.35431C12.9677 6.66012 12.5737 6.94921 12.1261 7.21857C12.6393 7.30405 13.0944 7.47155 13.4318 7.74298C13.6721 7.93639 13.8579 8.18804 13.9454 8.49591C14.0327 8.80297 14.0104 9.12591 13.9034 9.44513C13.6956 10.065 13.1543 10.7171 12.3126 11.3904C11.7395 11.849 11.477 12.2665 11.3888 12.5858C11.305 12.8896 11.3693 13.1292 11.5157 13.3123C11.8286 13.7034 12.6845 13.988 13.8146 13.536L14.1857 14.4647C12.8158 15.0125 11.4216 14.7962 10.7345 13.9373C10.3811 13.4954 10.2578 12.9224 10.4239 12.3201C10.5858 11.7332 11.011 11.1505 11.6876 10.6092C12.4747 9.97955 12.8382 9.47645 12.9552 9.12775C13.0105 8.96292 13.0059 8.84831 12.9835 8.76935C12.9613 8.69108 12.9103 8.60721 12.8048 8.52228C12.578 8.33984 12.1376 8.18568 11.4737 8.15411C10.8249 8.12333 10.0209 8.21328 9.13 8.45197C7.3426 8.9309 5.61107 9.03736 4.24816 8.80255C2.9314 8.57567 1.75733 7.98473 1.46203 6.88263C1.16162 5.76085 1.92514 4.74283 2.96398 3.97345C4.03974 3.17676 5.60023 2.49193 7.37121 2.0174ZM11.8409 2.71369C10.7732 2.50714 9.30206 2.53523 7.63 2.98322C5.93344 3.43781 4.50075 4.0795 3.55871 4.77716C2.58043 5.50178 2.29985 6.14548 2.42785 6.62384C2.56136 7.12211 3.18149 7.60416 4.41808 7.8172C5.60857 8.02229 7.19109 7.93633 8.87121 7.48615C10.5502 7.03621 11.8271 6.34985 12.6222 5.61798C13.4286 4.87563 13.6617 4.171 13.5167 3.6297C13.4848 3.51059 13.3704 3.33627 13.0782 3.15411C12.7914 2.97534 12.3757 2.81717 11.8409 2.71369Z" fill="white"/>
</svg>
