<svg width="16" height="16" viewBox="0 0 16 16" fill="none" xmlns="http://www.w3.org/2000/svg">
<path d="M14.3538 13.6468L13.6467 14.3538L8.14673 8.85381L8.85376 8.14678L14.3538 13.6468ZM8.42993 5.54327L12.0676 7.39776L8.0354 8.03545L7.39771 12.0677L5.54321 8.42999L1.51294 9.06866L4.39868 6.18194L2.54614 2.5462L6.18188 4.39874L9.0686 1.51299L8.42993 5.54327ZM6.37622 5.61944L4.83228 4.83233L5.61938 6.37627L4.39575 7.59893L6.10571 7.3294L6.26978 7.65264L6.89087 8.87041L7.16138 7.16143L8.87036 6.89092L7.65259 6.26983L7.32935 6.10577L7.59888 4.39581L6.37622 5.61944Z" fill="white"/>
</svg>
