<svg width="16" height="16" viewBox="0 0 16 16" fill="none" xmlns="http://www.w3.org/2000/svg">
<path d="M14.5 1.5V6H13.5V2.5H2.5V13.5H6V14.5H1.5V1.5H14.5Z" fill="white"/>
<path d="M11.6865 6.97949L10.9795 7.68652L10.5 7.20703V9.5H12.793L12.3135 9.02051L13.0205 8.31348L14.707 10L13.0205 11.6865L12.3135 10.9795L12.793 10.5H10.5V12.793L10.9795 12.3135L11.6865 13.0205L10 14.707L8.31348 13.0205L9.02051 12.3135L9.5 12.793V10.5H7.20703L7.68652 10.9795L6.97949 11.6865L5.29297 10L6.97949 8.31348L7.68652 9.02051L7.20703 9.5H9.5V7.20703L9.02051 7.68652L8.31348 6.97949L10 5.29297L11.6865 6.97949Z" fill="white"/>
</svg>
