<svg width="16" height="16" viewBox="0 0 16 16" fill="none" xmlns="http://www.w3.org/2000/svg">
<path d="M7.57593 2.00586L15.1228 3.16699L10.1541 7.60742C10.6792 7.69226 11.3264 7.82639 11.8962 8.03906C12.2094 8.15595 12.5199 8.30299 12.7781 8.49219C13.0344 8.68002 13.2748 8.93555 13.3826 9.27637C13.6144 10.0101 13.1447 10.7247 12.3123 11.3906C11.7391 11.8492 11.4766 12.2666 11.3884 12.5859C11.3046 12.8898 11.369 13.1294 11.5154 13.3125C11.8282 13.7036 12.6843 13.988 13.8142 13.5361L14.1853 14.4639C12.8154 15.0117 11.4212 14.7964 10.7341 13.9375C10.3807 13.4956 10.2584 12.9226 10.4246 12.3203C10.5865 11.7335 11.0107 11.1506 11.6873 10.6094C12.4837 9.97222 12.4544 9.65602 12.4294 9.57715C12.4086 9.51165 12.3458 9.41506 12.1873 9.29883C12.0302 9.18375 11.8121 9.07468 11.5466 8.97559C11.0161 8.77757 10.3752 8.64892 9.85229 8.57031C9.594 8.53149 9.37005 8.50531 9.21167 8.48926C9.13279 8.48126 9.0703 8.47617 9.02808 8.47266C9.00693 8.4709 8.9907 8.46954 8.98022 8.46875C8.97508 8.46836 8.97087 8.46794 8.96851 8.46777H8.96558L8.94019 8.46582L8.91479 8.46191L0.733154 7.05176L7.19604 2.10254L7.36499 1.97363L7.57593 2.00586ZM3.15698 6.4541L8.84546 7.43457L12.8757 3.83301L7.6355 3.02637L3.15698 6.4541Z" fill="white"/>
</svg>
