<svg width="16" height="16" viewBox="0 0 16 16" fill="none" xmlns="http://www.w3.org/2000/svg">
<path d="M14.2402 13.9639C13.9564 14.0774 13.6751 14.158 13.4014 14.207L13.2256 13.2227C13.43 13.186 13.6459 13.1254 13.8691 13.0361L14.2402 13.9639ZM11.4072 12.3906C11.4237 12.6818 11.6095 12.9545 11.9961 13.1221L11.5977 14.04C10.9396 13.7547 10.451 13.191 10.4092 12.4463L10.9082 12.418L11.4072 12.3906ZM12.625 9.96094L13.0059 10.2842C12.8374 10.4829 12.6246 10.6847 12.3672 10.8906C12.1657 11.0518 12.0011 11.2089 11.8691 11.3594L11.4932 11.0303L11.1172 10.7002C11.2925 10.5003 11.5005 10.3027 11.7422 10.1094C11.9627 9.93295 12.126 9.7758 12.2432 9.6377L12.625 9.96094ZM11.501 7.38965C12.0733 7.55746 12.7075 7.81397 13.1016 8.22559L12.3789 8.91699C12.1785 8.70767 11.7669 8.51009 11.2197 8.34961L11.501 7.38965ZM9.80176 7.04688C9.8332 7.05104 9.86556 7.05402 9.89844 7.05859L9.88672 7.1416L10.0127 7.2832L9.84668 7.43066L9.83008 7.55371L9.76074 8.04883C9.5407 8.01822 9.35376 7.99814 9.22266 7.98535C9.15723 7.97897 9.10585 7.9745 9.07129 7.97168C9.054 7.97027 9.0407 7.96938 9.03223 7.96875C9.02825 7.96845 9.02344 7.96777 9.02344 7.96777H9.02148L8.99512 7.96582L8.96973 7.96191L8.08789 7.80957L8.25781 6.82422L8.90039 6.93457L9.34668 6.53711L9.80176 7.04688ZM6.49414 6.52051L6.32422 7.50586L4.56055 7.20215L4.73047 6.2168L6.49414 6.52051ZM2.82129 5.8877L2.9668 5.91309L2.94336 6.04688L2.99805 6.11914L2.9209 6.17773L2.79688 6.89844L0.788086 6.55176L2.39062 5.3252L2.82129 5.8877ZM12.5127 5.04883L11.2627 6.16602L10.5967 5.41992L11.8467 4.30273L12.5127 5.04883ZM5.47168 3.59473L5.77539 3.99219L4.38672 5.05566L4.08301 4.6582L3.7793 4.26172L5.16797 3.19824L5.47168 3.59473ZM15.1777 2.66699L13.7627 3.93164L13.2754 3.38574L13.166 3.36914L13.1797 3.27832L13.0967 3.18555L13.209 3.08398L13.2422 2.875L13.3184 2.38086L15.1777 2.66699ZM11.6934 2.13086L11.541 3.11914L9.91602 2.86914L10.0684 1.88086L11.6934 2.13086ZM7.63086 1.50586L8.44336 1.63086L8.29102 2.61914L7.68945 2.52637L7.16504 2.92871L6.55664 2.13477L7.25098 1.60254L7.41992 1.47363L7.63086 1.50586Z" fill="white"/>
</svg>
